<svg width="310" height="145" viewBox="0 0 310 145" fill="none" xmlns="http://www.w3.org/2000/svg">
<path d="M63.8094 75.7524L59.0061 64.3472C59.2771 63.8051 59.6837 63.3172 60.2258 62.8836C60.7137 62.4499 61.6353 62.233 62.9905 62.233V61.5825H52.9887V62.233C54.344 62.233 55.1572 62.4499 55.4282 62.8836C55.645 63.3172 55.6179 63.9678 55.3469 64.8351L43.8001 93.7834L31.4402 64.5912C31.6028 64.1575 31.9281 63.6696 32.416 63.1275C32.9038 62.5312 33.9338 62.233 35.5059 62.233V61.5825H25.5042V62.233C26.8594 62.233 27.6726 62.4499 27.9436 62.8836C28.1605 63.3172 28.1333 63.9678 27.8623 64.8351L4.6061 122.894C4.44347 123.22 4.30794 123.572 4.19952 123.951C4.0911 124.277 3.90137 124.602 3.63032 124.927C3.35927 125.198 2.97979 125.442 2.4919 125.659C1.9498 125.822 1.21796 125.903 0.296387 125.903V126.635H10.2169V125.903C8.8616 125.903 8.07556 125.686 7.85872 125.252C7.64187 124.819 7.66898 124.168 7.94003 123.301L31.0336 65.567L43.3935 94.7592L32.0907 122.894C31.9281 123.22 31.7925 123.572 31.6841 123.951C31.5757 124.277 31.386 124.602 31.1149 124.927C30.8439 125.198 30.4644 125.442 29.9765 125.659C29.4344 125.822 28.7026 125.903 27.781 125.903V126.635H37.7015V125.903C36.3462 125.903 35.5601 125.686 35.3433 125.252C35.1265 124.819 35.1536 124.168 35.4246 123.301L45.1825 98.9876L50.8309 112.431L51.1849 111.43L45.589 98.0118C48.0285 91.886 50.0343 86.8445 51.6064 82.8871C53.1785 78.9298 54.4524 75.7585 55.4282 73.3732C56.404 70.988 57.1087 69.2533 57.5424 68.1691C57.9761 67.0306 58.2742 66.2717 58.4369 65.8922C58.5408 65.6497 58.6116 65.4957 58.6491 65.4303C58.6558 65.4274 58.6664 65.4188 58.6808 65.4043C58.6808 65.3848 58.6702 65.3934 58.6491 65.4303C58.6304 65.4384 58.641 65.4026 58.6808 65.323L63.4675 76.7188L63.8094 75.7524Z" fill="white"/>
<path d="M91.5213 124.077C91.7381 124.782 92.0905 125.297 92.5784 125.622C93.0663 125.948 93.9607 126.11 95.2618 126.11V126.842H85.1787V126.11C86.2629 126.11 86.9947 126.029 87.3742 125.866C87.8079 125.65 88.0247 125.27 88.0247 124.728C88.0247 124.565 87.9976 124.403 87.9434 124.24C87.9434 124.023 87.8621 123.671 87.6994 123.183C87.591 122.695 87.4013 121.99 87.1302 121.069C86.9134 120.147 86.561 118.873 86.0731 117.247C85.6395 115.621 85.0703 113.561 84.3655 111.067C83.6608 108.573 82.8205 105.51 81.8447 101.878C80.4353 102.475 79.1884 103.749 78.1042 105.7C77.02 107.598 75.8003 110.254 74.445 113.669C73.5235 115.946 72.6561 117.952 71.8429 119.686C71.0298 121.367 70.2166 122.776 69.4035 123.915C68.5903 125.053 67.6959 125.894 66.7201 126.436C65.7985 126.978 64.7414 127.249 63.5488 127.249C62.2477 127.249 61.0822 127.032 60.0522 126.598C59.0764 126.11 58.2633 125.514 57.6128 124.809C57.0164 124.05 56.5828 123.237 56.3117 122.37C56.0407 121.502 55.9051 120.662 55.9051 119.849C55.9051 119.686 55.9051 119.524 55.9051 119.361C55.9051 119.036 55.9322 118.656 55.9865 118.223C56.0949 117.735 56.3117 116.868 56.637 115.621C56.9622 114.32 57.423 112.531 58.0193 110.254C58.6699 107.923 59.5643 104.752 60.7027 100.74C61.8412 96.6742 63.2506 91.6597 64.9311 85.6966C66.6659 79.6793 68.753 72.3609 71.1924 63.7415C70.9756 63.362 70.5961 63.0367 70.054 62.7657C69.5661 62.4946 68.753 62.3591 67.6145 62.3591V61.6273H77.779V62.3591C76.6948 62.3591 75.9629 62.5217 75.5835 62.847C75.204 63.1723 75.0142 63.633 75.0142 64.2293C75.0142 64.392 75.0142 64.5546 75.0142 64.7172C75.0685 64.8799 75.2311 65.4491 75.5021 66.4249C75.7732 67.4007 76.2069 69.027 76.8032 71.3038C77.4537 73.5806 78.3753 76.9146 79.5679 81.3056C80.8147 85.6424 82.3868 91.2803 84.2842 98.2192C86.2358 105.158 88.6481 113.778 91.5213 124.077ZM73.7132 113.344C74.96 110.254 76.1798 107.625 77.3724 105.456C78.565 103.288 79.9745 101.851 81.6008 101.147L71.599 65.0425C71.2195 66.3436 70.6774 68.2409 69.9727 70.7346C69.268 73.2283 68.4548 76.0743 67.5332 79.2727C66.6659 82.4169 65.7443 85.7508 64.7685 89.2745C63.7927 92.7439 62.844 96.105 61.9225 99.3576C61.0009 102.61 60.1606 105.592 59.4017 108.302C58.6428 111.013 58.0464 113.154 57.6128 114.726C57.3959 115.594 57.2875 116.461 57.2875 117.328C57.2875 117.654 57.3146 118.169 57.3688 118.873C57.423 119.578 57.7212 120.391 58.2633 121.313C58.8054 122.18 59.5914 122.912 60.6214 123.508C61.6514 124.05 62.8983 124.321 64.3619 124.321C64.7956 124.321 65.3377 124.267 65.9882 124.159C66.6388 123.996 67.3435 123.59 68.1024 122.939C68.9156 122.234 69.783 121.15 70.7045 119.686C71.6261 118.169 72.629 116.054 73.7132 113.344Z" fill="white"/>
<path d="M121.524 61.7086V67.3193H120.792C120.792 65.5846 120.548 64.3649 120.06 63.6601C119.627 62.9012 118.949 62.4675 118.028 62.3591H107.782V123.346C107.782 124.213 108.026 124.891 108.514 125.379C109.056 125.812 110.032 126.029 111.441 126.029V126.761H100.626V126.029C101.493 126.029 102.171 125.948 102.659 125.785C103.201 125.568 103.58 125.297 103.797 124.972C104.014 124.592 104.15 124.186 104.204 123.752C104.258 123.319 104.285 122.858 104.285 122.37V62.3591H94.0395C93.1179 62.4675 92.4132 62.9012 91.9253 63.6601C91.4916 64.3649 91.2748 65.5846 91.2748 67.3193H90.5429V61.7086H121.524Z" fill="white"/>
<path d="M157.644 67.4007C157.644 65.6659 157.4 64.4191 156.912 63.6601C156.478 62.9012 155.801 62.4946 154.879 62.4404H135.526V74.2311C137.098 74.719 138.562 75.4238 139.917 76.3453C141.272 77.2127 142.546 78.1343 143.739 79.1101C144.986 80.0859 146.151 81.0616 147.236 82.0374C148.32 82.959 149.35 83.745 150.326 84.3956C151.356 84.9919 152.142 85.3442 152.684 85.4527C153.28 85.5611 153.66 85.6153 153.822 85.6153C154.581 85.6153 155.313 85.3714 156.018 84.8835L156.424 85.534C155.828 85.8592 155.313 86.049 154.879 86.1032C154.5 86.1574 154.256 86.2116 154.147 86.2658C153.931 86.2658 153.714 86.2658 153.497 86.2658C152.413 86.2658 151.139 85.8863 149.675 85.1274C148.266 84.3143 146.748 83.2843 145.121 82.0374C143.495 80.7906 141.869 79.5438 140.243 78.2969C138.616 76.9959 137.044 75.993 135.526 75.2882V126.029H154.554C155.476 125.975 156.18 125.568 156.668 124.809C157.156 124.05 157.4 122.804 157.4 121.069H158.051V126.761H128.37V126.029H128.94C130.458 125.921 131.352 125.514 131.623 124.809C131.894 124.105 132.03 123.319 132.03 122.451V74.3125C131.65 74.2582 131.298 74.2311 130.973 74.2311C130.647 74.2311 130.268 74.2854 129.834 74.3938C129.455 74.448 128.994 74.5564 128.452 74.719L128.208 73.9872C128.696 73.8788 129.184 73.7975 129.672 73.7433C130.214 73.6348 130.729 73.5806 131.217 73.5806C131.488 73.5806 131.759 73.5806 132.03 73.5806V66.0183C132.03 65.5304 132.003 65.0696 131.948 64.6359C131.894 64.2022 131.759 63.8228 131.542 63.4975C131.325 63.1723 130.945 62.9283 130.403 62.7657C129.915 62.5488 129.238 62.4404 128.37 62.4404V61.7086H158.376V67.4007H157.644Z" fill="white"/>
<path d="M238.435 140.828L238.679 141.479L238.353 141.642C233.366 143.214 228.677 144 224.286 144C223.852 144 223.391 144 222.903 144C222.47 144 222.009 143.973 221.521 143.918C217.022 143.593 212.983 142.482 209.405 140.585C205.827 138.741 202.656 136.519 199.891 133.917C197.181 131.369 194.822 128.631 192.817 125.704C190.865 122.776 189.239 120.066 187.938 117.572C184.035 110.254 180.701 101.553 177.936 91.47C176.31 92.5542 174.873 93.7197 173.626 94.9666C172.379 96.2134 171.539 97.7855 171.105 99.6829L171.187 122.451C171.187 122.939 171.187 123.4 171.187 123.834C171.241 124.267 171.377 124.647 171.593 124.972C171.864 125.297 172.244 125.568 172.732 125.785C173.22 125.948 173.924 126.029 174.846 126.029V126.761H163.95V126.029C164.871 126.029 165.576 125.948 166.064 125.785C166.552 125.568 166.904 125.297 167.121 124.972C167.392 124.647 167.528 124.267 167.528 123.834C167.582 123.4 167.609 122.939 167.609 122.451V66.0183C167.609 65.5304 167.582 65.0696 167.528 64.6359C167.528 64.2022 167.392 63.8228 167.121 63.4975C166.904 63.1723 166.552 62.9012 166.064 62.6844C165.576 62.4675 164.871 62.3591 163.95 62.3591V61.7086H178.099C180.213 61.7086 182.219 61.9796 184.116 62.5217C186.013 63.0096 187.667 63.7686 189.076 64.7986C190.54 65.8286 191.705 67.1296 192.573 68.7017C193.44 70.2196 193.874 72.0356 193.874 74.1498C193.874 76.4267 193.467 78.3782 192.654 80.0045C191.895 81.5766 190.865 82.959 189.564 84.1516C188.317 85.3442 186.908 86.4013 185.336 87.3229C183.764 88.2445 182.191 89.139 180.619 90.0063C182.029 95.2105 183.52 99.981 185.092 104.318C186.664 108.6 188.371 112.585 190.215 116.271C192.817 121.53 195.69 126.029 198.834 129.77C202.195 133.89 205.854 137.034 209.812 139.202C211.763 140.341 213.796 141.208 215.91 141.804C218.079 142.455 220.301 142.888 222.578 143.105C227.457 143.431 232.634 142.699 238.109 140.91L238.435 140.828ZM173.708 93.8281C174.954 92.5813 176.418 91.4971 178.099 90.5755C179.833 89.5998 181.568 88.624 183.303 87.6482C185.2 86.4556 186.745 84.9919 187.938 83.2572C189.13 81.5224 189.944 79.7335 190.377 77.8903C190.865 75.993 190.974 74.1227 190.703 72.2796C190.431 70.4364 189.781 68.783 188.751 67.3193C187.775 65.8557 186.393 64.663 184.604 63.7415C182.815 62.8199 180.646 62.3591 178.099 62.3591H171.105V97.406C171.756 96.105 172.623 94.9124 173.708 93.8281Z" fill="white"/>
<path d="M200.161 126.11C201.841 126.11 202.844 125.785 203.169 125.135C203.549 124.43 203.738 123.535 203.738 122.451V66.0996C203.738 65.6117 203.711 65.1509 203.657 64.7172C203.657 64.2836 203.522 63.9041 203.25 63.5788C203.034 63.2536 202.681 62.9825 202.193 62.7657C201.705 62.5488 201.001 62.4404 200.079 62.4404V61.7086H207.804L236.59 118.711V66.0183C236.59 64.9341 236.4 64.0667 236.021 63.4162C235.695 62.7657 234.692 62.4404 233.012 62.4404V61.7086H240.981V62.4404C240.059 62.4404 239.354 62.5488 238.867 62.7657C238.379 62.9825 237.999 63.2536 237.728 63.5788C237.511 63.9041 237.376 64.2836 237.322 64.7172C237.322 65.1509 237.322 65.5846 237.322 66.0183V126.761H236.59L204.47 63.1722V122.451C204.47 122.939 204.47 123.4 204.47 123.834C204.524 124.267 204.66 124.647 204.877 124.972C205.148 125.297 205.527 125.568 206.015 125.785C206.503 126.002 207.208 126.11 208.129 126.11V126.761H200.161V126.11Z" fill="white"/>
<path d="M246.215 79.9097C250.734 71.2874 259.645 64.4277 268.981 62.3839C288.418 58.1282 309.154 72.4389 309.125 90.0886C309.112 97.8299 306.322 104.045 300.002 110.407C295.623 114.815 293.314 115.962 292.116 114.322C291.735 113.802 291.426 113.241 291.429 113.076C291.431 112.911 292.94 112.306 294.782 111.732C300.995 109.795 305.286 104.106 306.522 96.167C307.679 88.7381 304.648 81.2265 297.639 74.1463C292.847 69.3063 288.08 66.5461 281.783 64.9654C277.131 63.7972 266.5 64.1369 262.985 65.5658C254.942 68.8357 248.269 75.9969 245.779 84.0306C244.501 88.1527 244.285 95.7136 245.326 99.8984C247.186 107.376 251.311 113.971 257.274 118.995C264.41 125.008 272.58 127.919 280.554 127.289C290.467 126.507 297.782 122.705 302.993 115.626C304.262 113.902 305.439 112.714 305.607 112.986C305.776 113.259 304.988 114.651 303.858 116.081C297.227 124.459 288.73 128.968 278.546 129.513C262.709 130.359 248.735 120.834 243.864 105.871C241.133 97.4838 241.996 87.9606 246.215 79.9097Z" fill="white"/>
<path d="M58.6491 65.4303C58.6116 65.4957 58.5408 65.6497 58.4369 65.8922C58.2742 66.2717 57.9761 67.0306 57.5424 68.1691C57.1087 69.2533 56.404 70.988 55.4282 73.3732C54.4524 75.7585 53.1785 78.9298 51.6064 82.8871C50.0343 86.8445 48.0285 91.886 45.589 98.0118L51.1849 111.43L50.8309 112.431L45.1825 98.9876L35.4246 123.301C35.1536 124.168 35.1265 124.819 35.3433 125.252C35.5601 125.686 36.3462 125.903 37.7015 125.903V126.635H27.781V125.903C28.7026 125.903 29.4344 125.822 29.9765 125.659C30.4644 125.442 30.8439 125.198 31.1149 124.927C31.386 124.602 31.5757 124.277 31.6841 123.951C31.7925 123.572 31.9281 123.22 32.0907 122.894L43.3935 94.7592L31.0336 65.567L7.94003 123.301C7.66898 124.168 7.64187 124.819 7.85872 125.252C8.07556 125.686 8.8616 125.903 10.2169 125.903V126.635H0.296387V125.903C1.21796 125.903 1.9498 125.822 2.4919 125.659C2.97979 125.442 3.35927 125.198 3.63032 124.927C3.90137 124.602 4.0911 124.277 4.19952 123.951C4.30794 123.572 4.44347 123.22 4.6061 122.894L27.8623 64.8351C28.1333 63.9678 28.1605 63.3172 27.9436 62.8836C27.6726 62.4499 26.8594 62.233 25.5042 62.233V61.5825H35.5059V62.233C33.9338 62.233 32.9038 62.5312 32.416 63.1275C31.9281 63.6696 31.6028 64.1575 31.4402 64.5912L43.8001 93.7834L55.3469 64.8351C55.6179 63.9678 55.645 63.3172 55.4282 62.8836C55.1572 62.4499 54.344 62.233 52.9887 62.233V61.5825H62.9905V62.233C61.6353 62.233 60.7137 62.4499 60.2258 62.8836C59.6837 63.3172 59.2771 63.8051 59.0061 64.3472L63.8094 75.7524L63.4675 76.7188L58.6808 65.323C58.641 65.4026 58.6304 65.4384 58.6491 65.4303ZM58.6491 65.4303C58.6558 65.4274 58.6664 65.4188 58.6808 65.4043C58.6808 65.3848 58.6702 65.3934 58.6491 65.4303ZM91.5213 124.077C91.7381 124.782 92.0905 125.297 92.5784 125.622C93.0663 125.948 93.9607 126.11 95.2618 126.11V126.842H85.1787V126.11C86.2629 126.11 86.9947 126.029 87.3742 125.866C87.8079 125.65 88.0247 125.27 88.0247 124.728C88.0247 124.565 87.9976 124.403 87.9434 124.24C87.9434 124.023 87.8621 123.671 87.6994 123.183C87.591 122.695 87.4013 121.99 87.1302 121.069C86.9134 120.147 86.561 118.873 86.0731 117.247C85.6395 115.621 85.0703 113.561 84.3655 111.067C83.6608 108.573 82.8205 105.51 81.8447 101.878C80.4353 102.475 79.1884 103.749 78.1042 105.7C77.02 107.598 75.8003 110.254 74.445 113.669C73.5235 115.946 72.6561 117.952 71.8429 119.686C71.0298 121.367 70.2166 122.776 69.4035 123.915C68.5903 125.053 67.6959 125.894 66.7201 126.436C65.7985 126.978 64.7414 127.249 63.5488 127.249C62.2477 127.249 61.0822 127.032 60.0522 126.598C59.0764 126.11 58.2633 125.514 57.6128 124.809C57.0164 124.05 56.5828 123.237 56.3117 122.37C56.0407 121.502 55.9051 120.662 55.9051 119.849C55.9051 119.686 55.9051 119.524 55.9051 119.361C55.9051 119.036 55.9322 118.656 55.9865 118.223C56.0949 117.735 56.3117 116.868 56.637 115.621C56.9622 114.32 57.423 112.531 58.0193 110.254C58.6699 107.923 59.5643 104.752 60.7027 100.74C61.8412 96.6742 63.2506 91.6597 64.9311 85.6966C66.6659 79.6793 68.753 72.3609 71.1924 63.7415C70.9756 63.362 70.5961 63.0367 70.054 62.7657C69.5661 62.4946 68.753 62.3591 67.6145 62.3591V61.6273H77.779V62.3591C76.6948 62.3591 75.9629 62.5217 75.5835 62.847C75.204 63.1723 75.0142 63.633 75.0142 64.2293C75.0142 64.392 75.0142 64.5546 75.0142 64.7172C75.0685 64.8799 75.2311 65.4491 75.5021 66.4249C75.7732 67.4007 76.2069 69.027 76.8032 71.3038C77.4537 73.5806 78.3753 76.9146 79.5679 81.3056C80.8147 85.6424 82.3868 91.2803 84.2842 98.2192C86.2358 105.158 88.6481 113.778 91.5213 124.077ZM73.7132 113.344C74.96 110.254 76.1798 107.625 77.3724 105.456C78.565 103.288 79.9745 101.851 81.6008 101.147L71.599 65.0425C71.2195 66.3436 70.6774 68.2409 69.9727 70.7346C69.268 73.2283 68.4548 76.0743 67.5332 79.2727C66.6659 82.4169 65.7443 85.7508 64.7685 89.2745C63.7927 92.7439 62.844 96.105 61.9225 99.3576C61.0009 102.61 60.1606 105.592 59.4017 108.302C58.6428 111.013 58.0464 113.154 57.6128 114.726C57.3959 115.594 57.2875 116.461 57.2875 117.328C57.2875 117.654 57.3146 118.169 57.3688 118.873C57.423 119.578 57.7212 120.391 58.2633 121.313C58.8054 122.18 59.5914 122.912 60.6214 123.508C61.6514 124.05 62.8983 124.321 64.3619 124.321C64.7956 124.321 65.3377 124.267 65.9882 124.159C66.6388 123.996 67.3435 123.59 68.1024 122.939C68.9156 122.234 69.783 121.15 70.7045 119.686C71.6261 118.169 72.629 116.054 73.7132 113.344ZM121.524 61.7086V67.3193H120.792C120.792 65.5846 120.548 64.3649 120.06 63.6601C119.627 62.9012 118.949 62.4675 118.028 62.3591H107.782V123.346C107.782 124.213 108.026 124.891 108.514 125.379C109.056 125.812 110.032 126.029 111.441 126.029V126.761H100.626V126.029C101.493 126.029 102.171 125.948 102.659 125.785C103.201 125.568 103.58 125.297 103.797 124.972C104.014 124.592 104.15 124.186 104.204 123.752C104.258 123.319 104.285 122.858 104.285 122.37V62.3591H94.0395C93.1179 62.4675 92.4132 62.9012 91.9253 63.6601C91.4916 64.3649 91.2748 65.5846 91.2748 67.3193H90.5429V61.7086H121.524ZM157.644 67.4007C157.644 65.6659 157.4 64.4191 156.912 63.6601C156.478 62.9012 155.801 62.4946 154.879 62.4404H135.526V74.2311C137.098 74.719 138.562 75.4238 139.917 76.3453C141.272 77.2127 142.546 78.1343 143.739 79.1101C144.986 80.0859 146.151 81.0616 147.236 82.0374C148.32 82.959 149.35 83.745 150.326 84.3956C151.356 84.9919 152.142 85.3442 152.684 85.4527C153.28 85.5611 153.66 85.6153 153.822 85.6153C154.581 85.6153 155.313 85.3714 156.018 84.8835L156.424 85.534C155.828 85.8592 155.313 86.049 154.879 86.1032C154.5 86.1574 154.256 86.2116 154.147 86.2658C153.931 86.2658 153.714 86.2658 153.497 86.2658C152.413 86.2658 151.139 85.8863 149.675 85.1274C148.266 84.3143 146.748 83.2843 145.121 82.0374C143.495 80.7906 141.869 79.5438 140.243 78.2969C138.616 76.9959 137.044 75.993 135.526 75.2882V126.029H154.554C155.476 125.975 156.18 125.568 156.668 124.809C157.156 124.05 157.4 122.804 157.4 121.069H158.051V126.761H128.37V126.029H128.94C130.458 125.921 131.352 125.514 131.623 124.809C131.894 124.105 132.03 123.319 132.03 122.451V74.3125C131.65 74.2582 131.298 74.2311 130.973 74.2311C130.647 74.2311 130.268 74.2854 129.834 74.3938C129.455 74.448 128.994 74.5564 128.452 74.719L128.208 73.9872C128.696 73.8788 129.184 73.7975 129.672 73.7433C130.214 73.6348 130.729 73.5806 131.217 73.5806C131.488 73.5806 131.759 73.5806 132.03 73.5806V66.0183C132.03 65.5304 132.003 65.0696 131.948 64.6359C131.894 64.2022 131.759 63.8228 131.542 63.4975C131.325 63.1723 130.945 62.9283 130.403 62.7657C129.915 62.5488 129.238 62.4404 128.37 62.4404V61.7086H158.376V67.4007H157.644ZM238.435 140.828L238.679 141.479L238.353 141.642C233.366 143.214 228.677 144 224.286 144C223.852 144 223.391 144 222.903 144C222.47 144 222.009 143.973 221.521 143.918C217.022 143.593 212.983 142.482 209.405 140.585C205.827 138.741 202.656 136.519 199.891 133.917C197.181 131.369 194.822 128.631 192.817 125.704C190.865 122.776 189.239 120.066 187.938 117.572C184.035 110.254 180.701 101.553 177.936 91.47C176.31 92.5542 174.873 93.7197 173.626 94.9666C172.379 96.2134 171.539 97.7855 171.105 99.6829L171.187 122.451C171.187 122.939 171.187 123.4 171.187 123.834C171.241 124.267 171.377 124.647 171.593 124.972C171.864 125.297 172.244 125.568 172.732 125.785C173.22 125.948 173.924 126.029 174.846 126.029V126.761H163.95V126.029C164.871 126.029 165.576 125.948 166.064 125.785C166.552 125.568 166.904 125.297 167.121 124.972C167.392 124.647 167.528 124.267 167.528 123.834C167.582 123.4 167.609 122.939 167.609 122.451V66.0183C167.609 65.5304 167.582 65.0696 167.528 64.6359C167.528 64.2022 167.392 63.8228 167.121 63.4975C166.904 63.1723 166.552 62.9012 166.064 62.6844C165.576 62.4675 164.871 62.3591 163.95 62.3591V61.7086H178.099C180.213 61.7086 182.219 61.9796 184.116 62.5217C186.013 63.0096 187.667 63.7686 189.076 64.7986C190.54 65.8286 191.705 67.1296 192.573 68.7017C193.44 70.2196 193.874 72.0356 193.874 74.1498C193.874 76.4267 193.467 78.3782 192.654 80.0045C191.895 81.5766 190.865 82.959 189.564 84.1516C188.317 85.3442 186.908 86.4013 185.336 87.3229C183.764 88.2445 182.191 89.139 180.619 90.0063C182.029 95.2105 183.52 99.981 185.092 104.318C186.664 108.6 188.371 112.585 190.215 116.271C192.817 121.53 195.69 126.029 198.834 129.77C202.195 133.89 205.854 137.034 209.812 139.202C211.763 140.341 213.796 141.208 215.91 141.804C218.079 142.455 220.301 142.888 222.578 143.105C227.457 143.431 232.634 142.699 238.109 140.91L238.435 140.828ZM173.708 93.8281C174.954 92.5813 176.418 91.4971 178.099 90.5755C179.833 89.5998 181.568 88.624 183.303 87.6482C185.2 86.4556 186.745 84.9919 187.938 83.2572C189.13 81.5224 189.944 79.7335 190.377 77.8903C190.865 75.993 190.974 74.1227 190.703 72.2796C190.431 70.4364 189.781 68.783 188.751 67.3193C187.775 65.8557 186.393 64.663 184.604 63.7415C182.815 62.8199 180.646 62.3591 178.099 62.3591H171.105V97.406C171.756 96.105 172.623 94.9124 173.708 93.8281ZM200.161 126.11C201.841 126.11 202.844 125.785 203.169 125.135C203.549 124.43 203.738 123.535 203.738 122.451V66.0996C203.738 65.6117 203.711 65.1509 203.657 64.7172C203.657 64.2836 203.522 63.9041 203.25 63.5788C203.034 63.2536 202.681 62.9825 202.193 62.7657C201.705 62.5488 201.001 62.4404 200.079 62.4404V61.7086H207.804L236.59 118.711V66.0183C236.59 64.9341 236.4 64.0667 236.021 63.4162C235.695 62.7657 234.692 62.4404 233.012 62.4404V61.7086H240.981V62.4404C240.059 62.4404 239.354 62.5488 238.867 62.7657C238.379 62.9825 237.999 63.2536 237.728 63.5788C237.511 63.9041 237.376 64.2836 237.322 64.7172C237.322 65.1509 237.322 65.5846 237.322 66.0183V126.761H236.59L204.47 63.1722V122.451C204.47 122.939 204.47 123.4 204.47 123.834C204.524 124.267 204.66 124.647 204.877 124.972C205.148 125.297 205.527 125.568 206.015 125.785C206.503 126.002 207.208 126.11 208.129 126.11V126.761H200.161V126.11ZM268.981 62.3839C259.645 64.4277 250.734 71.2874 246.215 79.9097C241.996 87.9606 241.133 97.4838 243.864 105.871C248.735 120.834 262.709 130.359 278.546 129.513C288.73 128.968 297.227 124.459 303.858 116.081C304.988 114.651 305.776 113.259 305.607 112.986C305.439 112.714 304.262 113.902 302.993 115.626C297.782 122.705 290.467 126.507 280.554 127.289C272.58 127.919 264.41 125.008 257.274 118.995C251.311 113.971 247.186 107.376 245.326 99.8984C244.285 95.7136 244.501 88.1527 245.779 84.0306C248.269 75.9969 254.942 68.8357 262.985 65.5658C266.5 64.1369 277.131 63.7972 281.783 64.9654C288.08 66.5461 292.847 69.3063 297.639 74.1463C304.648 81.2265 307.679 88.7381 306.522 96.167C305.286 104.106 300.995 109.795 294.782 111.732C292.94 112.306 291.431 112.911 291.429 113.076C291.426 113.241 291.735 113.802 292.116 114.322C293.314 115.962 295.623 114.815 300.002 110.407C306.322 104.045 309.112 97.8299 309.125 90.0886C309.154 72.4389 288.418 58.1282 268.981 62.3839Z" stroke="white" stroke-width="0.592294"/>
<path d="M144.328 4.03616C144.003 4.2369 143.79 3.50339 143.79 2.18437C143.79 0.983208 144.032 0 144.328 0C144.624 0 144.866 0.833066 144.866 1.85179C144.866 2.87052 144.624 3.85319 144.328 4.03616Z" fill="white"/>
<path d="M144.328 9.68679C144.032 9.68679 143.79 8.71811 143.79 7.53417C143.79 6.35023 144.032 5.38155 144.328 5.38155C144.624 5.38155 144.866 6.35023 144.866 7.53417C144.866 8.71811 144.624 9.68679 144.328 9.68679Z" fill="white"/>
<path d="M144.328 15.0683C144.032 15.0683 143.79 14.0851 143.79 12.884C143.79 11.565 144.003 10.8314 144.328 11.0322C144.624 11.2152 144.866 12.1978 144.866 13.2166C144.866 14.2353 144.624 15.0683 144.328 15.0683Z" fill="white"/>
<path d="M144.328 20.719C143.999 20.9224 143.79 20.0861 143.79 18.5664C143.79 17.0466 143.999 16.2103 144.328 16.4137C144.624 16.5967 144.866 17.5654 144.866 18.5664C144.866 19.5673 144.624 20.536 144.328 20.719Z" fill="white"/>
<path d="M144.328 26.1005C144.003 26.3013 143.79 25.5677 143.79 24.2487C143.79 23.0476 144.032 22.0644 144.328 22.0644C144.624 22.0644 144.866 22.8974 144.866 23.9162C144.866 24.9349 144.624 25.9176 144.328 26.1005Z" fill="white"/>
<path d="M144.328 31.4821C144.003 31.6833 143.79 30.9391 143.79 29.5985C143.79 28.258 144.003 27.5137 144.328 27.715C144.624 27.898 144.866 28.7456 144.866 29.5985C144.866 30.4515 144.624 31.2991 144.328 31.4821Z" fill="white"/>
<path d="M144.328 36.8636C144.003 37.0649 143.79 36.3206 143.79 34.9801C143.79 33.6395 144.003 32.8953 144.328 33.0965C144.624 33.2795 144.866 34.1271 144.866 34.9801C144.866 35.8331 144.624 36.6807 144.328 36.8636Z" fill="white"/>
<path d="M144.328 42.5143C144.032 42.5143 143.79 41.531 143.79 40.3299C143.79 39.0109 144.003 38.2774 144.328 38.4781C144.624 38.6611 144.866 39.6437 144.866 40.6625C144.866 41.6812 144.624 42.5143 144.328 42.5143Z" fill="white"/>
<path d="M144.328 47.8958C144.032 47.8958 143.79 46.9126 143.79 45.7114C143.79 44.3924 144.003 43.6589 144.328 43.8596C144.624 44.0426 144.866 45.0253 144.866 46.044C144.866 47.0627 144.624 47.8958 144.328 47.8958Z" fill="white"/>
<path d="M144.328 53.5464C143.999 53.7499 143.79 52.9136 143.79 51.3938C143.79 49.8741 143.999 49.0378 144.328 49.2412C144.624 49.4242 144.866 50.3928 144.866 51.3938C144.866 52.3948 144.624 53.3635 144.328 53.5464Z" fill="white"/>
<path d="M144.328 55.6991C144.032 55.882 143.79 55.7749 143.79 55.4617C143.79 55.1485 144.032 54.8918 144.328 54.8918C144.624 54.8918 144.866 54.9984 144.866 55.1291C144.866 55.2599 144.624 55.5161 144.328 55.6991Z" fill="white"/>
<path d="M55.3779 41.0394C57.1608 41.0394 58.7815 40.7639 60.2402 40.2128C61.6988 39.6294 62.9306 38.8352 63.9355 37.8303C64.9727 36.7931 65.7669 35.5775 66.318 34.1837C66.9014 32.7574 67.1932 31.2177 67.1932 29.5645V29.4673C67.1932 27.8141 66.9014 26.2744 66.318 24.8482C65.7669 23.4219 64.9727 22.2064 63.9355 21.2015C62.9306 20.1642 61.6988 19.3538 60.2402 18.7704C58.7815 18.1869 57.1608 17.8952 55.3779 17.8952H48.668V41.0394H55.3779ZM42.6875 12.4495H55.3779C58.036 12.4495 60.4671 12.8871 62.6713 13.7623C64.9079 14.6051 66.8204 15.7882 68.4087 17.3117C70.0295 18.8352 71.2774 20.6342 72.1526 22.7088C73.0279 24.7509 73.4655 26.9713 73.4655 29.3701V29.4673C73.4655 31.866 73.0279 34.1026 72.1526 36.1772C71.2774 38.2517 70.0295 40.0508 68.4087 41.5743C66.8204 43.0978 64.9079 44.2971 62.6713 45.1723C60.4671 46.0475 58.036 46.4851 55.3779 46.4851H42.6875V12.4495Z" fill="white"/>
<path d="M78.6304 12.4495H84.611V46.4851H78.6304V12.4495Z" fill="white"/>
<path d="M88.3735 12.4495H94.9862L105.245 38.6083L115.456 12.4495H121.923L107.774 46.7282H102.523L88.3735 12.4495Z" fill="white"/>
<path d="M186.039 29.3214C188.179 29.3214 189.88 28.819 191.145 27.8141C192.409 26.7769 193.041 25.383 193.041 23.6326V23.5354C193.041 21.6877 192.425 20.2939 191.193 19.3538C189.961 18.3814 188.227 17.8952 185.991 17.8952H177.287V29.3214H186.039ZM171.307 12.4495H186.477C188.616 12.4495 190.512 12.7574 192.166 13.3733C193.819 13.9568 195.196 14.7833 196.299 15.853C197.206 16.7931 197.903 17.879 198.389 19.1107C198.875 20.3425 199.119 21.7039 199.119 23.195V23.2923C199.119 24.6861 198.908 25.9503 198.487 27.0848C198.098 28.1869 197.546 29.1756 196.833 30.0508C196.12 30.8936 195.261 31.6229 194.256 32.2388C193.284 32.8222 192.198 33.276 190.999 33.6002L200.188 46.4851H193.138L184.775 34.6213H177.287V46.4851H171.307V12.4495Z" fill="white"/>
<path d="M220.301 47.0686C217.805 47.0686 215.504 46.6148 213.397 45.7072C211.29 44.7995 209.458 43.5678 207.903 42.0119C206.379 40.4235 205.18 38.5597 204.304 36.4203C203.429 34.2809 202.992 31.9957 202.992 29.5645V29.4673C202.992 27.0362 203.413 24.7671 204.256 22.6602C205.131 20.5208 206.347 18.6569 207.903 17.0686C209.458 15.4479 211.306 14.1837 213.445 13.2761C215.585 12.336 217.951 11.866 220.544 11.866C222.1 11.866 223.51 11.9957 224.774 12.255C226.071 12.5143 227.254 12.8871 228.324 13.3733C229.394 13.8271 230.382 14.3782 231.29 15.0265C232.198 15.6748 233.057 16.3879 233.867 17.1658L230.026 21.5905C228.664 20.3263 227.222 19.3052 225.698 18.5273C224.175 17.7493 222.441 17.3603 220.496 17.3603C218.875 17.3603 217.368 17.6845 215.974 18.3328C214.612 18.9487 213.429 19.8077 212.424 20.9098C211.42 21.9795 210.642 23.2436 210.091 24.7023C209.539 26.161 209.264 27.7169 209.264 29.3701V29.4673C209.264 31.1205 209.539 32.6926 210.091 34.1837C210.642 35.6423 211.42 36.9227 212.424 38.0248C213.429 39.1269 214.612 40.0021 215.974 40.6504C217.368 41.2663 218.875 41.5743 220.496 41.5743C222.57 41.5743 224.353 41.1853 225.844 40.4073C227.335 39.597 228.81 38.5111 230.269 37.1496L234.11 41.0394C233.235 41.9794 232.311 42.8222 231.339 43.5678C230.398 44.2809 229.377 44.913 228.275 45.4641C227.173 45.9827 225.958 46.3717 224.629 46.631C223.332 46.9227 221.89 47.0686 220.301 47.0686Z" fill="white"/>
<path d="M238.791 12.4495H244.772V46.4851H238.791V12.4495Z" fill="white"/>
<path d="M268.275 41.5743C269.961 41.5743 271.5 41.2663 272.894 40.6504C274.321 40.0021 275.536 39.1431 276.541 38.0735C277.546 36.9713 278.324 35.691 278.875 34.2323C279.458 32.7736 279.75 31.2177 279.75 29.5645V29.4673C279.75 27.8141 279.458 26.2582 278.875 24.7996C278.324 23.3085 277.53 22.0281 276.492 20.9584C275.487 19.8563 274.272 18.9811 272.846 18.3328C271.419 17.6845 269.863 17.3603 268.178 17.3603C266.492 17.3603 264.936 17.6845 263.51 18.3328C262.116 18.9487 260.917 19.8077 259.912 20.9098C258.907 21.9795 258.113 23.2436 257.53 24.7023C256.979 26.161 256.703 27.7169 256.703 29.3701V29.4673C256.703 31.1205 256.979 32.6926 257.53 34.1837C258.113 35.6423 258.907 36.9227 259.912 38.0248C260.949 39.0945 262.181 39.9535 263.607 40.6018C265.034 41.2501 266.59 41.5743 268.275 41.5743ZM268.178 47.0686C265.552 47.0686 263.154 46.6148 260.982 45.7072C258.81 44.7671 256.946 43.503 255.39 41.9146C253.834 40.3263 252.619 38.4786 251.744 36.3717C250.868 34.2323 250.431 31.9632 250.431 29.5645V29.4673C250.431 27.0686 250.868 24.8158 251.744 22.7088C252.619 20.5694 253.851 18.7055 255.439 17.1172C257.027 15.4965 258.907 14.2161 261.079 13.2761C263.251 12.336 265.65 11.866 268.275 11.866C270.901 11.866 273.299 12.336 275.471 13.2761C277.643 14.1837 279.507 15.4316 281.063 17.02C282.619 18.6083 283.834 20.4722 284.71 22.6115C285.585 24.7185 286.022 26.9713 286.022 29.3701V29.4673C286.022 31.866 285.585 34.135 284.71 36.2744C283.834 38.3814 282.603 40.2453 281.014 41.866C279.426 43.4543 277.546 44.7185 275.374 45.6585C273.202 46.5986 270.804 47.0686 268.178 47.0686Z" fill="white"/>
<path d="M149.171 46.8157C149.227 46.8161 149.282 46.8163 149.337 46.8163C151.963 46.8163 154.362 46.3463 156.533 45.4063C158.705 44.4662 160.585 43.202 162.174 41.6137C163.762 39.993 164.994 38.1291 165.869 36.0221C166.744 33.8828 167.182 31.6137 167.182 29.215V29.1178C167.182 26.7191 166.744 24.4662 165.869 22.3593C164.994 20.2199 163.778 18.356 162.222 16.7677C160.666 15.1794 158.802 13.9314 156.631 13.0238C154.459 12.0837 152.06 11.6137 149.435 11.6137C149.347 11.6137 149.259 11.6142 149.171 11.6153V17.1091C149.226 17.1084 149.282 17.108 149.337 17.108C151.023 17.108 152.579 17.4322 154.005 18.0805C155.431 18.7288 156.647 19.604 157.652 20.7061C158.689 21.7758 159.483 23.0562 160.034 24.5473C160.618 26.0059 160.909 27.5619 160.909 29.215V29.3123C160.909 30.9654 160.618 32.5213 160.034 33.98C159.483 35.4387 158.705 36.7191 157.7 37.8212C156.695 38.8909 155.48 39.7499 154.054 40.3982C152.66 41.014 151.12 41.322 149.435 41.322C149.346 41.322 149.259 41.3211 149.171 41.3193V46.8157Z" fill="white"/>
<path d="M139.736 46.8157C139.681 46.8161 139.625 46.8163 139.57 46.8163C136.944 46.8163 134.546 46.3463 132.374 45.4063C130.202 44.4662 128.322 43.202 126.734 41.6137C125.145 39.993 123.914 38.1291 123.038 36.0221C122.163 33.8828 121.726 31.6137 121.726 29.215V29.1178C121.726 26.7191 122.163 24.4662 123.038 22.3593C123.914 20.2199 125.129 18.356 126.685 16.7677C128.241 15.1794 130.105 13.9314 132.277 13.0238C134.448 12.0837 136.847 11.6137 139.473 11.6137C139.561 11.6137 139.648 11.6142 139.736 11.6153V17.1091C139.681 17.1084 139.625 17.108 139.57 17.108C137.884 17.108 136.328 17.4322 134.902 18.0805C133.476 18.7288 132.26 19.604 131.256 20.7061C130.218 21.7758 129.424 23.0562 128.873 24.5473C128.29 26.0059 127.998 27.5619 127.998 29.215V29.3123C127.998 30.9654 128.29 32.5213 128.873 33.98C129.424 35.4387 130.202 36.7191 131.207 37.8212C132.212 38.8909 133.427 39.7499 134.854 40.3982C136.247 41.014 137.787 41.322 139.473 41.322C139.561 41.322 139.649 41.3211 139.736 41.3193V46.8157Z" fill="white"/>
<path d="M153.303 7.57589C153.194 7.46747 153.14 7.35905 153.14 7.25062C153.845 6.70852 154.549 6.0851 155.254 5.38037C156.013 4.62143 156.691 3.91669 157.287 3.26617C157.883 2.56144 158.398 1.93802 158.832 1.39592C159.32 0.853814 159.699 0.501447 159.97 0.338818C160.35 0.0677673 160.757 -0.0406534 161.19 0.0135562C161.624 0.0677657 161.976 0.284607 162.247 0.664081C162.518 0.989341 162.627 1.39592 162.573 1.88381C162.518 2.31749 162.302 2.66986 161.922 2.94091C161.651 3.10354 161.19 3.34749 160.54 3.67275C159.943 3.99801 159.239 4.37748 158.425 4.81117C157.612 5.19064 156.745 5.65142 155.823 6.19352C154.956 6.68142 154.17 7.19641 153.465 7.73852L153.303 7.57589Z" fill="white"/>
</svg>
